PathFileType   4   (X/Y/Z)
DataRate	CameraRate	NumFrames	NumMarkers	Units	OrigDataRate	OrigDataStartFrame	OrigNumFrames
120.0	120.0	12	37	mm	120.0	70	97
Frame#	Time	midhip	hip_r	hip_l	knee_r	knee_l	ankle_r	ankle_l	midasis	asis_r	asis_l	psis_r	psis_l	epicondLat_r	epicondLat_l	epicondMed_r	epicondMed_l	malleolusLat_r	malleolusLat_l	malleolusMedv_r	malleolusMedv_l	neck	subclavicle_r	subclavicle_l	sternalnotch	xyphoidprocess	thighwand_r	thighwand_l	upperleg1_r	upperleg1_l	upperleg2_r	upperleg2_l	shankwand_r	shankwand_l	lowerleg1_r	lowerleg1_l	toe_r	toe_l
 	 	X1	Y1	Z1	X2	Y2	Z2	X3	Y3	Z3	X4	Y4	Z4	X5	Y5	Z5	X6	Y6	Z6	X7	Y7	Z7	X8	Y8	Z8	X9	Y9	Z9	X10	Y10	Z10	X11	Y11	Z11	X12	Y12	Z12	X13	Y13	Z13	X14	Y14	Z14	X15	Y15	Z15	X16	Y16	Z16	X17	Y17	Z17	X18	Y18	Z18	X19	Y19	Z19	X20	Y20	Z20	X21	Y21	Z21	X22	Y22	Z22	X23	Y23	Z23	X24	Y24	Z24	X25	Y25	Z25	X26	Y26	Z26	X27	Y27	Z27	X28	Y28	Z28	X29	Y29	Z29	X30	Y30	Z30	X31	Y31	Z31	X32	Y32	Z32	X33	Y33	Z33	X34	Y34	Z34	X35	Y35	Z35	X36	Y36	Z36	X37	Y37	Z37

	70	0.67500	2138.459	820.261	-287.090	2128.626	798.367	-211.103	2120.337	810.572	-362.514	2229.720	425.973	-188.380	2166.023	425.422	-345.289	1970.387	168.415	-223.775	2087.124	67.632	-330.270	2215.259	877.888	-282.805	2217.830	868.254	-164.442	2212.687	887.521	-401.168	2022.843	935.116	-241.217	2017.830	935.373	-295.917	2227.553	428.917	-130.496	2176.881	424.162	-402.249	2252.208	420.651	-253.588	2178.162	438.652	-282.833	1956.578	177.307	-187.303	2080.036	67.542	-369.637	1985.227	169.444	-256.460	2095.096	76.902	-304.206	2104.196	1375.592	-284.807	2232.435	1323.669	-233.580	2231.992	1316.374	-339.385	2228.809	1316.249	-285.893	2272.856	1249.624	-285.097	2361.090	591.433	-196.898	2207.082	553.341	-493.439	2280.343	624.985	-150.220	2140.041	599.525	-442.340	2291.118	537.971	-149.733	2156.304	514.485	-424.157	1999.744	236.680	-110.414	2201.221	175.496	-313.513	2009.499	243.292	-153.002	2160.812	181.759	-326.528	2010.761	79.666	-199.011	2193.449	41.103	-350.247
	71	0.68333	2150.069	820.630	-287.082	2141.058	800.089	-210.594	2132.534	811.271	-362.070	2253.418	429.776	-188.826	2169.206	425.519	-344.687	2003.734	162.640	-225.343	2087.399	68.068	-329.699	2227.769	878.888	-282.994	2230.523	870.066	-164.578	2225.014	887.711	-401.410	2035.746	936.722	-241.305	2030.593	936.857	-295.983	2250.683	432.348	-130.948	2179.770	423.954	-401.695	2277.050	427.476	-256.439	2168.950	434.709	-284.334	1989.608	170.852	-188.832	2080.340	68.033	-369.071	2019.119	163.396	-257.744	2095.262	77.249	-303.782	2117.228	1376.865	-285.216	2245.099	1324.892	-233.256	2245.384	1317.511	-339.295	2242.075	1317.328	-285.605	2285.838	1250.785	-284.563	2379.459	599.325	-195.420	2212.420	552.556	-492.819	2297.638	630.234	-148.457	2146.318	599.609	-441.162	2311.479	543.841	-149.868	2156.061	515.730	-424.805	2030.399	231.325	-111.719	2202.090	175.254	-312.941	2040.592	238.125	-154.312	2161.994	181.505	-326.152	2049.265	77.043	-200.158	2193.578	41.118	-350.197
	72	0.69167	2162.757	821.725	-286.978	2153.531	801.517	-210.053	2144.776	811.705	-361.586	2276.577	433.533	-189.285	2172.112	425.620	-344.117	2037.582	156.435	-226.623	2087.852	68.559	-329.070	2240.317	879.608	-283.127	2243.251	871.576	-164.711	2237.383	887.641	-401.543	2048.675	938.035	-241.302	2043.368	938.059	-295.957	2273.358	435.723	-131.416	2182.529	423.778	-401.144	2299.640	431.968	-255.460	2181.456	437.223	-281.167	2023.199	163.912	-190.055	2080.606	68.611	-368.408	2052.734	158.000	-259.170	2095.442	77.516	-303.111	2130.021	1377.760	-285.572	2258.010	1325.597	-233.048	2258.992	1318.590	-339.560	2255.366	1318.174	-285.293	2299.185	1251.727	-284.598	2397.258	607.040	-194.140	2217.961	551.778	-492.059	2314.240	635.378	-147.174	2152.712	600.365	-440.229	2330.609	548.816	-148.670	2164.179	514.667	-422.316	2061.494	225.465	-112.765	2203.179	174.984	-312.804	2071.447	232.987	-155.393	2163.683	181.707	-326.735	2088.137	74.235	-200.845	2193.688	41.155	-350.093
	73	0.70000	2176.489	823.551	-287.078	2166.029	802.627	-209.474	2157.032	811.861	-361.054	2299.145	437.178	-189.752	2174.725	425.726	-343.615	2071.921	149.887	-227.603	2088.419	69.093	-328.388	2252.887	880.021	-283.202	2256.007	872.751	-164.854	2249.767	887.291	-401.549	2061.627	939.038	-241.214	2056.174	938.967	-295.848	2295.531	438.984	-131.893	2185.171	423.630	-400.628	2321.574	436.316	-254.249	2187.311	438.692	-279.732	2057.342	156.590	-190.962	2080.812	69.257	-367.658	2086.695	152.817	-260.281	2095.724	77.789	-302.164	2143.703	1377.919	-286.039	2271.235	1325.941	-232.644	2272.822	1318.960	-339.189	2268.711	1318.749	-284.989	2312.758	1252.116	-284.000	2414.513	614.450	-193.071	2223.754	551.017	-491.162	2330.352	640.431	-146.366	2159.481	601.216	-439.702	2349.070	554.010	-147.607	2170.159	515.333	-421.263	2093.036	219.228	-113.532	2204.450	174.697	-313.017	2102.444	227.698	-155.798	2165.865	182.975	-326.901	2127.360	71.319	-201.041	2193.785	41.209	-349.905
	74	0.70833	2189.556	824.389	-287.182	2178.544	803.400	-208.862	2169.273	811.734	-360.478	2321.082	440.642	-190.217	2177.088	425.841	-343.190	2106.776	143.075	-228.259	2089.050	69.678	-327.648	2265.461	880.112	-283.229	2268.790	873.564	-165.025	2262.133	886.659	-401.434	2074.583	939.722	-241.050	2069.015	939.573	-295.669	2317.163	442.076	-132.368	2187.737	423.505	-400.156	2344.039	441.496	-255.459	2186.878	439.358	-278.913	2092.053	148.984	-191.539	2080.964	69.967	-366.821	2121.350	146.810	-260.926	2095.567	78.534	-301.258	2157.745	1377.948	-286.523	2284.431	1326.490	-232.250	2286.387	1319.231	-338.211	2282.124	1319.027	-284.700	2326.159	1252.548	-282.960	2431.270	621.418	-192.213	2229.812	550.273	-490.142	2346.473	644.708	-145.890	2166.707	601.863	-439.457	2367.617	559.236	-147.744	2174.202	516.670	-420.917	2125.021	212.741	-114.007	2205.834	174.427	-313.460	2133.961	221.787	-156.045	2168.523	184.446	-325.826	2166.920	68.380	-200.732	2193.871	41.278	-349.619
	75	0.71667	2202.093	824.348	-287.101	2191.085	803.826	-208.227	2181.492	811.325	-359.867	2342.360	443.860	-190.672	2179.304	425.973	-342.835	2142.202	136.067	-228.555	2089.687	70.342	-326.841	2278.038	879.881	-283.225	2281.610	874.007	-165.226	2274.465	885.755	-401.224	2087.521	940.074	-240.814	2081.885	939.871	-295.434	2338.218	444.940	-132.830	2190.288	423.396	-399.727	2365.912	445.772	-256.129	2185.412	440.221	-277.476	2127.366	141.186	-191.762	2081.077	70.755	-365.901	2156.546	140.268	-261.260	2095.685	79.706	-300.568	2171.042	1377.961	-286.752	2297.675	1326.735	-232.071	2299.951	1319.517	-337.610	2295.609	1318.995	-284.403	2339.689	1252.891	-282.454	2447.572	627.819	-191.545	2236.099	549.528	-489.021	2362.444	648.328	-145.629	2173.620	602.224	-439.447	2385.864	563.746	-147.798	2178.080	516.822	-420.183	2157.430	206.124	-114.181	2207.256	174.193	-313.972	2166.006	215.581	-156.324	2169.333	184.658	-325.859	2206.808	65.514	-199.924	2193.948	41.355	-349.246
	76	0.72500	2214.941	824.285	-286.801	2203.680	803.902	-207.580	2193.701	810.638	-359.230	2362.960	446.775	-191.114	2181.523	426.134	-342.526	2178.245	128.934	-228.456	2090.288	71.116	-325.961	2290.625	879.344	-283.204	2294.489	874.085	-165.451	2286.761	884.603	-400.956	2100.429	940.084	-240.505	2094.777	939.850	-295.149	2358.672	447.530	-133.277	2192.909	423.306	-399.327	2385.405	450.476	-257.181	2192.905	440.585	-276.681	2163.308	133.285	-191.606	2081.169	71.642	-364.904	2192.192	133.989	-261.316	2096.533	80.634	-299.829	2184.298	1377.693	-286.810	2310.869	1326.073	-231.987	2314.030	1319.241	-337.546	2309.155	1318.646	-284.092	2353.314	1252.418	-282.295	2463.462	633.545	-191.061	2242.553	548.752	-487.831	2377.969	652.205	-144.727	2180.480	602.457	-438.956	2403.341	567.456	-147.796	2185.245	516.743	-419.470	2190.241	199.478	-114.048	2208.662	174.022	-314.418	2198.178	209.183	-156.123	2168.492	183.992	-326.856	2247.020	62.830	-198.645	2194.016	41.434	-348.815
	77	0.73333	2227.633	823.738	-286.165	2216.366	803.635	-206.926	2205.925	809.685	-358.575	2382.877	449.346	-191.552	2183.895	426.334	-342.235	2214.933	121.761	-227.929	2090.827	72.012	-325.007	2303.242	878.526	-283.174	2307.456	873.820	-165.680	2299.029	883.233	-400.669	2113.317	939.751	-240.127	2107.686	939.502	-294.812	2378.510	449.804	-133.719	2195.687	423.240	-398.939	2403.917	454.934	-258.174	2195.946	439.915	-276.492	2199.892	125.376	-191.042	2081.256	72.637	-363.840	2227.259	128.322	-261.443	2097.806	81.070	-298.832	2197.799	1377.117	-286.921	2323.905	1324.864	-231.683	2328.127	1318.874	-337.381	2322.758	1317.981	-283.787	2366.794	1251.575	-282.218	2478.973	638.518	-190.741	2249.125	547.916	-486.605	2393.281	655.447	-143.779	2187.605	602.879	-437.966	2420.269	571.192	-147.798	2190.765	516.937	-418.907	2223.419	192.892	-113.601	2210.032	173.897	-314.691	2229.783	202.945	-155.924	2168.619	183.382	-327.103	2287.546	60.439	-196.957	2194.072	41.505	-348.361
	78	0.74167	2240.619	823.152	-285.380	2229.180	803.039	-206.271	2218.196	808.483	-357.904	2402.094	451.526	-192.012	2186.540	426.579	-341.931	2252.239	114.666	-226.943	2091.302	73.011	-324.005	2315.914	877.455	-283.144	2320.538	873.234	-165.890	2311.290	881.675	-400.399	2126.215	939.079	-239.678	2120.609	938.831	-294.407	2397.719	451.720	-134.177	2198.695	423.204	-398.543	2423.412	458.127	-258.451	2198.796	439.722	-275.652	2237.086	117.581	-190.039	2081.351	73.728	-362.741	2262.752	122.550	-261.091	2098.429	81.949	-297.658	2211.115	1376.138	-286.871	2337.258	1323.481	-231.219	2341.987	1318.317	-337.110	2336.415	1317.000	-283.492	2380.462	1250.630	-282.211	2494.131	642.671	-190.625	2255.791	547.000	-485.377	2408.294	657.815	-143.643	2194.794	603.166	-437.195	2437.014	574.781	-147.817	2196.238	516.549	-418.005	2256.919	186.450	-112.840	2211.390	173.801	-314.767	2261.574	196.738	-155.419	2169.710	183.565	-326.429	2328.354	58.458	-194.944	2194.119	41.560	-347.921
	79	0.75000	2253.982	822.570	-284.737	2242.150	802.136	-205.613	2230.546	807.051	-357.218	2420.592	453.267	-192.520	2189.544	426.864	-341.591	2290.084	107.798	-225.481	2091.727	74.091	-323.002	2328.665	876.157	-283.111	2333.761	872.357	-166.054	2323.570	879.957	-400.169	2139.169	938.083	-239.151	2133.545	937.849	-293.906	2416.289	453.237	-134.679	2201.987	423.199	-398.122	2441.071	460.812	-258.692	2203.282	439.758	-274.212	2274.815	110.045	-188.578	2081.468	74.899	-361.655	2300.988	115.687	-259.467	2098.365	83.665	-296.559	2224.623	1374.956	-286.943	2350.861	1322.107	-230.888	2356.018	1317.001	-336.673	2350.108	1315.739	-283.177	2394.260	1249.277	-281.697	2508.993	645.974	-190.763	2262.547	545.995	-484.182	2423.032	660.051	-143.217	2202.028	603.264	-436.412	2453.298	577.207	-147.806	2202.253	515.605	-416.696	2290.680	180.249	-111.766	2212.781	173.702	-314.671	2295.128	190.099	-154.169	2171.389	184.368	-325.359	2369.377	57.007	-192.693	2194.159	41.599	-347.525
	80	0.75833	2267.200	821.483	-284.339	2255.296	800.956	-204.942	2243.007	805.410	-356.507	2438.341	454.533	-193.097	2192.957	427.182	-341.202	2328.336	101.332	-223.560	2092.130	75.237	-322.058	2341.521	874.661	-283.061	2347.140	871.223	-166.131	2335.902	878.099	-399.992	2152.226	936.785	-238.527	2146.496	936.579	-293.272	2434.212	454.329	-135.245	2205.593	423.225	-397.670	2456.939	462.557	-258.575	2206.699	440.300	-272.590	2312.967	102.936	-186.665	2081.619	76.149	-360.642	2340.316	108.279	-257.192	2099.285	84.738	-295.808	2238.711	1373.698	-287.302	2364.527	1320.643	-230.400	2370.032	1315.204	-336.178	2363.816	1314.243	-282.805	2407.866	1247.523	-280.856	2523.568	648.387	-191.234	2269.392	544.914	-483.051	2437.317	661.436	-142.340	2209.129	603.178	-435.790	2468.734	578.556	-147.458	2207.877	515.016	-415.432	2324.641	174.398	-110.380	2214.256	173.568	-314.472	2329.518	183.737	-153.129	2173.584	184.668	-324.965	2410.514	56.200	-190.289	2194.194	41.624	-347.194
	81	0.76667	2280.499	820.212	-284.301	2268.618	799.526	-204.259	2255.596	803.587	-355.773	2455.321	455.297	-193.754	2196.807	427.526	-340.762	2366.813	95.457	-221.230	2092.551	76.440	-321.236	2354.491	872.991	-282.989	2360.675	869.860	-166.099	2348.308	876.123	-399.879	2165.423	935.213	-237.789	2159.468	935.052	-292.478	2451.485	454.982	-135.882	2209.526	423.285	-397.191	2471.880	462.873	-257.393	2208.957	440.622	-272.783	2351.388	96.434	-184.337	2081.823	77.484	-359.757	2378.841	102.115	-254.784	2100.793	84.910	-295.238	2252.603	1372.338	-287.457	2378.104	1319.101	-229.902	2383.824	1313.360	-335.991	2377.538	1312.550	-282.342	2421.346	1245.721	-280.253	2537.869	649.890	-192.108	2276.330	543.781	-482.027	2451.324	662.101	-141.705	2216.521	603.237	-435.442	2483.737	579.342	-146.900	2213.454	516.122	-415.544	2358.724	169.012	-108.694	2215.852	173.377	-314.268	2363.312	177.971	-151.732	2175.472	184.976	-324.640	2451.615	56.134	-187.805	2194.224	41.646	-346.938
